<svg width="24" height="24" viewBox="0 0 24 24" fill="none" xmlns="http://www.w3.org/2000/svg">
<path d="M17.066 2.00403L14.5572 2C11.7385 2 9.91703 3.86881 9.91703 6.76129V8.95656H7.39449C7.17652 8.95656 7 9.13328 7 9.35125V12.532C7 12.7499 7.17672 12.9264 7.39449 12.9264H9.91703V20.9524C9.91703 21.1703 10.0935 21.3469 10.3115 21.3469H13.6027C13.8207 21.3469 13.9972 21.1701 13.9972 20.9524V12.9264H16.9467C17.1646 12.9264 17.3411 12.7499 17.3411 12.532L17.3424 9.35125C17.3424 9.24659 17.3007 9.14636 17.2268 9.07229C17.153 8.99822 17.0523 8.95656 16.9477 8.95656H13.9972V7.0956C13.9972 6.20115 14.2104 5.74708 15.3755 5.74708L17.0656 5.74648C17.2834 5.74648 17.4599 5.56976 17.4599 5.35198V2.39852C17.4599 2.18094 17.2836 2.00443 17.066 2.00403Z" fill="#5A7BBB"/>
</svg>
