<svg width="24" height="24" viewBox="0 0 24 24" fill="none" xmlns="http://www.w3.org/2000/svg">
<path d="M10.5015 20.2709C10.5015 20.4698 10.4224 20.6606 10.2818 20.8013C10.1411 20.9419 9.95038 21.0209 9.75146 21.0209H4.50146C4.10364 21.0209 3.72211 20.8629 3.4408 20.5816C3.1595 20.3003 3.00146 19.9188 3.00146 19.5209V4.52094C3.00146 4.12311 3.1595 3.74158 3.4408 3.46027C3.72211 3.17897 4.10364 3.02094 4.50146 3.02094H9.75146C9.95038 3.02094 10.1411 3.09995 10.2818 3.24061C10.4224 3.38126 10.5015 3.57202 10.5015 3.77094C10.5015 3.96985 10.4224 4.16061 10.2818 4.30127C10.1411 4.44192 9.95038 4.52094 9.75146 4.52094H4.50146V19.5209H9.75146C9.95038 19.5209 10.1411 19.6 10.2818 19.7406C10.4224 19.8813 10.5015 20.072 10.5015 20.2709ZM20.7821 11.4903L17.0321 7.74031C16.8914 7.59958 16.7005 7.52052 16.5015 7.52052C16.3024 7.52052 16.1116 7.59958 15.9708 7.74031C15.8301 7.88104 15.751 8.07191 15.751 8.27094C15.751 8.46996 15.8301 8.66083 15.9708 8.80156L18.4412 11.2709H9.75146C9.55255 11.2709 9.36179 11.35 9.22114 11.4906C9.08048 11.6313 9.00146 11.822 9.00146 12.0209C9.00146 12.2198 9.08048 12.4106 9.22114 12.5513C9.36179 12.6919 9.55255 12.7709 9.75146 12.7709H18.4412L15.9708 15.2403C15.8301 15.381 15.751 15.5719 15.751 15.7709C15.751 15.97 15.8301 16.1608 15.9708 16.3016C16.1116 16.4423 16.3024 16.5214 16.5015 16.5214C16.7005 16.5214 16.8914 16.4423 17.0321 16.3016L20.7821 12.5516C20.8518 12.4819 20.9071 12.3992 20.9449 12.3081C20.9826 12.2171 21.0021 12.1195 21.0021 12.0209C21.0021 11.9224 20.9826 11.8248 20.9449 11.7337C20.9071 11.6427 20.8518 11.56 20.7821 11.4903Z" fill="#F5F5F5"/>
</svg>
