<svg width="24" height="24" viewBox="0 0 24 24" fill="none" xmlns="http://www.w3.org/2000/svg">
<path d="M22.4421 11.5613C22.4165 11.4929 21.6903 9.88677 20.0842 8.27209C17.9398 6.13626 15.2316 5 12.25 5C9.26839 5 6.56016 6.13626 4.4158 8.27209C2.80966 9.88677 2.08348 11.4929 2.05785 11.5613C2.01971 11.6474 2 11.7405 2 11.8346C2 11.9288 2.01971 12.0219 2.05785 12.108C2.08348 12.1764 2.80966 13.7825 4.4158 15.3972C6.56016 17.533 9.26839 18.6693 12.25 18.6693C15.2316 18.6693 17.9398 17.533 20.0842 15.3972C21.6903 13.7825 22.4165 12.1764 22.4421 12.108C22.4803 12.0219 22.5 11.9288 22.5 11.8346C22.5 11.7405 22.4803 11.6474 22.4421 11.5613ZM12.25 17.3024C9.61867 17.3024 7.32052 16.3455 5.42391 14.4574C4.64009 13.6855 3.97502 12.8016 3.4504 11.8346C3.97431 10.8647 4.6394 9.97785 5.42391 9.2033C7.32052 7.32378 9.61867 6.36693 12.25 6.36693C14.8814 6.36693 17.1795 7.32378 19.0761 9.2033C19.8606 9.97785 20.5257 10.8647 21.0496 11.8346C20.4345 12.988 17.7519 17.3024 12.25 17.3024ZM12.25 7.73386C11.4389 7.73386 10.6461 7.97436 9.97173 8.42497C9.29736 8.87556 8.77175 9.51602 8.46138 10.2653C8.15099 11.0147 8.06979 11.8392 8.22802 12.6347C8.38624 13.4301 8.77681 14.1608 9.35031 14.7343C9.92382 15.3078 10.6545 15.6984 11.4499 15.8566C12.2455 16.0149 13.07 15.9337 13.8193 15.6233C14.5686 15.3129 15.2091 14.7873 15.6597 14.1129C16.1103 13.4385 16.3508 12.6457 16.3508 11.8346C16.3508 10.747 15.9187 9.70399 15.1497 8.93495C14.3806 8.1659 13.3376 7.73386 12.25 7.73386ZM12.25 14.5685C11.7093 14.5685 11.1807 14.4082 10.7311 14.1077C10.2816 13.8074 9.93117 13.3804 9.72425 12.8808C9.51733 12.3813 9.46319 11.8316 9.56868 11.3013C9.67416 10.771 9.93454 10.2838 10.3169 9.90151C10.6992 9.51917 11.1863 9.2588 11.7167 9.15331C12.2469 9.04783 12.7966 9.10197 13.2962 9.30888C13.7958 9.5158 14.2227 9.86621 14.5232 10.3158C14.8235 10.7653 14.9839 11.294 14.9839 11.8346C14.9816 12.559 14.6928 13.2531 14.1806 13.7653C13.6685 14.2775 12.9743 14.5662 12.25 14.5685Z" fill="#F5F5F5"/>
</svg>
