<svg width="24" height="24" viewBox="0 0 24 24" fill="none" xmlns="http://www.w3.org/2000/svg">
<path d="M7.60056 12.0093C7.60056 12.195 7.67434 12.3731 7.80561 12.5043C7.93687 12.6356 8.11497 12.7094 8.30063 12.7094C8.48628 12.7094 8.66438 12.6356 8.79564 12.5043C8.92691 12.3731 9.00069 12.195 9.00069 12.0093H7.60056ZM11.801 9.20903C11.9866 9.20903 12.1647 9.13524 12.296 9.00398C12.4273 8.87271 12.501 8.69462 12.501 8.50896C12.501 8.3233 12.4273 8.1452 12.296 8.01394C12.1647 7.8826 11.9866 7.80889 11.801 7.80889V9.20903ZM16.0014 12.0093C16.0014 11.8236 15.9276 11.6455 15.7963 11.5143C15.6651 11.383 15.487 11.3092 15.3013 11.3092C15.1157 11.3092 14.9376 11.383 14.8063 11.5143C14.675 11.6455 14.6013 11.8236 14.6013 12.0093H16.0014ZM11.801 14.8096C11.6153 14.8096 11.4372 14.8833 11.306 15.0146C11.1747 15.1459 11.1009 15.324 11.1009 15.5097C11.1009 15.6953 11.1747 15.8734 11.306 16.0047C11.4372 16.1359 11.6153 16.2097 11.801 16.2097V14.8096ZM13.7444 6.63276C13.9254 6.67435 14.1155 6.64233 14.2729 6.54373C14.4304 6.44513 14.5422 6.28804 14.5837 6.10701C14.6253 5.92598 14.5933 5.73585 14.4947 5.57843C14.3961 5.42102 14.239 5.30922 14.058 5.26763L13.7444 6.63276ZM9.53205 17.3046C9.35269 17.2565 9.16157 17.2817 9.00076 17.3745C8.83989 17.4673 8.72256 17.6202 8.67446 17.7996C8.62637 17.9789 8.6515 18.1701 8.74433 18.3309C8.83716 18.4917 8.99005 18.6091 9.16941 18.6572L9.53205 17.3046ZM4.38094 16.0291C4.44872 16.0932 4.52863 16.1431 4.61598 16.1759C4.70333 16.2087 4.79634 16.2237 4.88956 16.22C4.98279 16.2164 5.07435 16.1941 5.15884 16.1546C5.24334 16.115 5.31908 16.0589 5.3816 15.9897C5.44413 15.9205 5.49218 15.8394 5.52295 15.7513C5.5537 15.6632 5.56655 15.5699 5.56071 15.4767C5.55488 15.3836 5.5305 15.2926 5.489 15.2091C5.44749 15.1255 5.3897 15.0511 5.31903 14.9902L4.38094 16.0291ZM19.2742 8.03781C19.1365 7.91719 18.9571 7.85523 18.7744 7.86531C18.5916 7.87539 18.42 7.95667 18.2964 8.09165C18.1729 8.22669 18.1071 8.40479 18.1131 8.58771C18.1193 8.77064 18.1968 8.94391 18.3291 9.07041L19.2742 8.03781ZM18.5965 6.20362C18.6634 6.13904 18.7167 6.06179 18.7534 5.97638C18.7901 5.89097 18.8094 5.79911 18.8103 5.70615C18.811 5.6132 18.7933 5.52101 18.7581 5.43498C18.7229 5.34894 18.671 5.27078 18.6052 5.20505C18.5395 5.13931 18.4614 5.08733 18.3753 5.05213C18.2893 5.01693 18.1971 4.99922 18.1041 5.00003C18.0111 5.00083 17.9193 5.02015 17.8339 5.05684C17.7485 5.09353 17.6712 5.14686 17.6066 5.21372L18.5965 6.20362ZM5.0054 17.815C4.87787 17.947 4.80731 18.1239 4.80891 18.3074C4.8105 18.491 4.88413 18.6665 5.01393 18.7963C5.14373 18.9261 5.31931 18.9998 5.50287 19.0014C5.68643 19.0029 5.86326 18.9324 5.9953 18.8049L5.0054 17.815ZM3.40014 12.0093C3.40014 11.6845 3.57026 11.1671 3.9973 10.528C4.41244 9.9063 5.0271 9.23633 5.80208 8.61887C7.35483 7.38114 9.48094 6.40874 11.801 6.40874V5.0086C9.0945 5.0086 6.67016 6.13641 4.92909 7.52395C4.0568 8.21913 3.33923 8.99341 2.83308 9.75018C2.33953 10.4888 2 11.2833 2 12.0093H3.40014ZM20.2018 12.0093C20.2018 12.3341 20.0317 12.8515 19.6046 13.4907C19.1895 14.1123 18.5748 14.7823 17.7999 15.3997C16.2471 16.6375 14.121 17.6099 11.801 17.6099V19.01C14.5074 19.01 16.9318 17.8822 18.6729 16.4947C19.5451 15.7995 20.2627 15.0259 20.7689 14.2684C21.2624 13.5299 21.6019 12.7353 21.6019 12.0093H20.2018ZM9.00069 12.0093C9.00069 11.2666 9.2957 10.5543 9.8209 10.0292C10.346 9.50404 11.0583 9.20903 11.801 9.20903V7.80889C10.687 7.80889 9.61858 8.2514 8.83086 9.03912C8.04307 9.82691 7.60056 10.8953 7.60056 12.0093H9.00069ZM14.6013 12.0093C14.6013 12.752 14.3062 13.4643 13.781 13.9894C13.2559 14.5146 12.5437 14.8096 11.801 14.8096V16.2097C12.915 16.2097 13.9834 15.7671 14.7711 14.9794C15.5589 14.1917 16.0014 13.1233 16.0014 12.0093H14.6013ZM11.801 6.40874C12.4674 6.40874 13.1178 6.48855 13.7444 6.63276L14.058 5.26763C13.3362 5.10241 12.5802 5.0086 11.801 5.0086V6.40874ZM11.801 17.6099C11.0183 17.6099 10.2573 17.4993 9.53275 17.3046L9.16871 18.6572C10.0269 18.8897 10.9119 19.0083 11.801 19.01V17.6099ZM5.31973 14.9902C4.69037 14.4217 4.19962 13.8316 3.86989 13.2911C3.53245 12.7381 3.40014 12.2949 3.40014 12.0093H2C2 12.659 2.27233 13.3604 2.67417 14.0199C3.08441 14.6934 3.66827 15.385 4.38094 16.0291L5.31903 14.9902H5.31973ZM18.3291 9.07041C18.9438 9.63327 19.4233 10.2157 19.744 10.7471C20.073 11.2924 20.2018 11.7272 20.2018 12.0093H21.6019C21.6019 11.3673 21.3359 10.675 20.9432 10.0239C20.542 9.35884 19.9708 8.67557 19.2742 8.03781L18.3291 9.07041ZM17.6066 5.21302L5.0054 17.8143L5.9953 18.8049L18.5965 6.20362L17.6066 5.21372V5.21302Z" fill="#F5F5F5"/>
</svg>
