<svg width="24" height="24" viewBox="0 0 24 24" fill="none" xmlns="http://www.w3.org/2000/svg">
<path d="M18.2238 17.8887C18.0832 18.0294 17.8924 18.1084 17.6935 18.1084C17.4946 18.1084 17.3038 18.0294 17.1632 17.8887L11.8599 12.5854L6.55656 17.8887C6.41591 18.0294 6.22514 18.1084 6.02623 18.1084C5.82732 18.1084 5.63655 18.0294 5.4959 17.8887C5.35525 17.7481 5.27623 17.5573 5.27623 17.3584C5.27623 17.1595 5.35525 16.9687 5.4959 16.8281L10.7992 11.5248L5.4959 6.22147C5.35525 6.08081 5.27623 5.89005 5.27623 5.69114C5.27623 5.49222 5.35525 5.30146 5.4959 5.16081C5.63655 5.02015 5.82732 4.94114 6.02623 4.94114C6.22514 4.94114 6.41591 5.02015 6.55656 5.16081L11.8599 10.4641L17.1632 5.16081C17.3038 5.02015 17.4946 4.94114 17.6935 4.94114C17.8924 4.94114 18.0832 5.02015 18.2238 5.16081C18.3645 5.30146 18.4435 5.49222 18.4435 5.69114C18.4435 5.89005 18.3645 6.08081 18.2238 6.22147L12.9205 11.5248L18.2238 16.8281C18.3645 16.9687 18.4435 17.1595 18.4435 17.3584C18.4435 17.5573 18.3645 17.7481 18.2238 17.8887Z" fill="#F5F5F5"/>
</svg>
